<svg xmlns="http://www.w3.org/2000/svg" width="32" height="32" fill="none" viewBox="0 0 32 32"><path fill="var(--main-quaternary-color, #CCC)" d="M15.617 14.904c-.498-1.095-5.166 3.952-4.808 4.626a.2.2 0 0 0 .09-.021c1.594.07 3.18.112 4.76.358 0 1.264 0 2.52-.007 3.784-.316-.014.717-7.813.4-7.87.429-.442.717-.877-.428-.877z"/><path fill="var(--main-quaternary-color, #CCC)" d="M5.793 11.022v-.33c1.832-.554 3.538-1.474 5.258-2.288.547-.26 1.299-.239 1.594-.948 1.046.042 2.12-.182 3.152.14.006 2.52.013 5.055.027 7.59h-.16c-2.016-.878-4.01-1.79-6.045-2.62-1.257-.512-2.436-1.326-3.819-1.537z"/><path fill="var(--main-text-tertiary-color, #B2B2B2)" d="M5.797 11.023c1.383.21 2.548 1.024 3.819 1.544 2.029.828 5.426 2.092 6.262 2.822-.162.772-1.13.751-1.601 1.207-1.074 1.032-2.359 1.819-3.377 2.92a.2.2 0 0 1-.09.022c-1.91-2.689-3.932-5.314-5.013-8.515"/><path fill="var(--main-quaternary-color, #CCC)" d="M22.195 14.833c0 1.348-.02 2.703.014 4.044a1.4 1.4 0 0 1-.147.772 1.35 1.35 0 0 1-.54.561c-.689.436-1.187 1.145-1.966 1.46-.836-1.08-1.355-2.372-2.1-3.503-.505-.772-.715-1.769-1.593-2.267 0-.168 0-.344.007-.512l.337-.183c.155.19.365.168.562.147 1.804-.168 3.608-.344 5.42-.519z"/><path fill="var(--main-text-tertiary-color, #B2B2B2)" d="M11.279 23.005c-.498-1.095-.274-2.33-.47-3.475a.2.2 0 0 0 .09-.021c1.594.07 3.18.112 4.76.358 0 1.263.148 2.534.14 3.798a10 10 0 0 1-1.101-.113c-1.117-.175-2.275-.54-3.42-.54z"/><path fill="var(--main-text-tertiary-color, #B2B2B2)" d="M15.648 23.657c0-1.263 0-2.52.007-3.783.365-1.306.056-2.654.196-3.967.92.38 1.088 1.503 1.594 2.268.75 1.137 1.27 2.422 2.099 3.503l-.197.316-3.552 1.663c-.05 0-.098 0-.154-.007z"/><path fill="var(--main-quaternary-color, #CCC)" d="m21.503 7.45 3.18.041c.05.794.492 1.453.723 2.19.12.38.421.745.14 1.173-.077.084-.14.12-.35.182-.66.127-1.236.485-1.84.759-.596.273-1.13.73-1.839.709q.002-2.506-.007-5.013l-.014-.035z"/><path fill="var(--main-text-tertiary-color, #B2B2B2)" d="M21.523 12.503c.709.021 1.236-.442 1.84-.709.603-.274 1.172-.632 1.838-.758-.4 1.18-1.446 1.846-2.12 2.808-.273.351-.554.695-.87 1.011-1.811.175-3.636.33-5.448.498-.196.021-.73.225-.884.036 1.221-.64 2.829-1.341 4.065-1.959.547-.274 1.179-.4 1.579-.927"/><path fill="var(--main-quaternary-color, #CCC)" d="M15.645 23.659h.154l.084 4.142c-.126.182-.245.098-.35-.022a1359 1359 0 0 1-4.177-4.808c1.144 0 2.218.407 3.341.582.316.056.632.085.948.099z"/><path fill="var(--main-text-tertiary-color, #B2B2B2)" d="M12.64 7.458c-.302.723-1.053.695-1.594.947-1.727.808-3.433 1.748-5.265 2.303L7.27 7.472l.253-.035 5.118.014zM15.885 27.793l-.084-4.142 3.552-1.664c-.632 1.44-1.502 2.745-2.296 4.086-.344.597-.54 1.327-1.172 1.727z"/><path fill="var(--main-quaternary-color, #CCC)" d="M8.555 6.164c.884-.59 1.797-1.08 2.899-1.074 3.138 0 6.276.05 9.407-.02.54-.036 1.536.034 2.041.23.506.19.614.492 1 .878v.623l-2.41-.426H9.665c-.38 0-.765.021-1.11-.197z"/><path fill="var(--main-quaternary-color, #CCC)" d="M8.558 6.158c.344.225.73.197 1.11.197h11.821V7.45l.014.042-5.707.112c-1.039-.316-2.099-.098-3.152-.14L7.52 7.45c.21-.548.224-1.25 1.038-1.292"/><path fill="var(--main-text-tertiary-color, #B2B2B2)" d="M23.793 6.34v-.17l.07.12-.07.042zM15.792 7.598l5.722-.105q-.001 2.506.006 5.012c-.4.527-1.031.653-1.572.927-1.236.618-2.492 1.186-3.742 1.776l-.337.183-.084-.232.014-7.56z"/><path fill="var(--main-text-tertiary-color, #B2B2B2)" d="M15.746.787c-5.174 0-9.737 2.626-12.426 6.62l3.98.07.225-.035c.21-.54.225-1.25 1.04-1.285.884-.59 1.796-1.074 2.899-1.074 3.137.007 6.268.05 9.406-.02a3.8 3.8 0 0 1 2.928 1.108l.07.12-.077.042-2.57.014-.02 1.488 3.467.042 3.531-.435C25.51 3.434 20.94.787 15.746.787"/><path fill="var(--main-text-secondary-color, #666)" d="M7.3 7.47 3.326 7.4a14.9 14.9 0 0 0-2.54 8.346c0 8.263 6.703 14.967 14.966 14.967s14.966-6.704 14.966-14.967c0-3.089-.933-5.96-2.54-8.34l-3.49.085c.05.793.492 1.453.723 2.19.12.379.415.73.14 1.165-.034.063-.259.169-.35.183-.393 1.18-1.453 1.846-2.127 2.815q-.411.523-.885.997c0 1.34-.02 2.695.014 4.043a1.4 1.4 0 0 1-.147.772 1.35 1.35 0 0 1-.54.562c-.689.435-1.187 1.144-1.966 1.46l-.197.316c-.632 1.44-1.502 2.745-2.296 4.086-.35.59-.54 1.32-1.172 1.72-.126.175-.252.098-.35-.021-1.39-1.608-2.78-3.209-4.178-4.816-.498-1.088-.323-2.317-.526-3.454-1.91-2.689-3.945-5.286-5.027-8.48v-.33L7.3 7.477z"/></svg>
