<svg xmlns="http://www.w3.org/2000/svg" width="45" height="45" fill="none" viewBox="0 0 45 45"><path fill="var(--main-text-secondary-color, #666)" d="M18.985 35.408c-.32.346-.267.425 1.516 2.255v-.005c1.016 1.043 1.965 1.872 2.108 1.841.138-.028 5.294-4.999 11.448-11.04 9.42-9.245 11.148-11.02 10.925-11.229-.581-.544-3.238-1.778-3.507-1.629-.306.175-21.982 19.258-22.49 19.807M14.132 30.988c-.062.152.547.882 1.508 1.812l-.003-.002c.886.856 1.67 1.557 1.743 1.557.247 0 12.772-10.76 12.772-10.97 0-.2-2.932-2.342-3.22-2.353-.232-.007-12.69 9.681-12.8 9.956M9.978 26.777c-.101.09.371.744 1.124 1.553.714.767 1.454 1.396 1.643 1.396.394 0 6.26-4.344 6.26-4.636 0-.237-2.614-2.393-2.905-2.396-.18-.003-5.597 3.611-6.122 4.082M6.406 23.181c-.244.218-.115.414.963 1.463v-.002c.722.703 1.367 1.18 1.538 1.138.43-.105 18.082-11.997 18.082-12.18 0-.257-2.385-1.646-2.66-1.55-.35.126-17.572 10.818-17.923 11.131M17.569 21.706c-.004.12.573.681 1.285 1.25.71.567 1.424 1.03 1.587 1.028.312 0 15.253-11.134 15.361-11.446.075-.214-2.253-1.509-2.713-1.509-.172 0-3.108 1.932-6.524 4.293-3.419 2.36-6.838 4.713-7.6 5.229-.763.515-1.392 1.035-1.396 1.155M3.15 20.022c-.222.194-.1.403.75 1.266h-.007c.558.568 1.154 1.033 1.324 1.033.357 0 12.388-7.265 12.482-7.535.071-.209-2.19-1.778-2.403-1.667-1.287.673-11.954 6.734-12.147 6.903M28.204 20.184c.037.106.706.634 1.487 1.173v.003c.781.54 1.567.956 1.748.926.392-.07 8.819-7.197 8.822-7.472.002-.108-.688-.55-1.534-.984-1.339-.686-1.584-.756-1.896-.545-1.603 1.09-8.68 6.747-8.627 6.899M0 17.36l1.026 1 .002-.002c.564.55 1.05 1 1.08 1 .27 0 22.57-12.525 22.57-12.677 0-.111-.467-.423-1.038-.692L22.603 5.5l-10.845 5.646C5.792 14.252.707 16.92.457 17.076zM16.792 12.446c-.001.117.41.51.912.874.503.363 1.058.662 1.232.665.349.006 9.208-5.322 9.208-5.541 0-.077-.522-.408-1.16-.735l-1.159-.594-4.516 2.558c-2.484 1.408-4.517 2.655-4.518 2.773M25.65 11.338c-.002.12.494.513 1.103.875.608.362 1.2.66 1.313.663.206.005 2.772-1.632 3.397-2.167.183-.156.29-.349.24-.427-.167-.26-2.237-1.31-2.469-1.253-.505.126-3.58 2.108-3.584 2.31"/></svg>
