<svg xmlns="http://www.w3.org/2000/svg" width="45" height="45" fill="none" viewBox="0 0 45 45"><path fill="var(--main-text-secondary-color, #666)" fill-rule="evenodd" d="M35.473 5C37.973 5 40 7.028 40 9.528v25.945c0 2.5-2.027 4.527-4.527 4.527H9.528A4.53 4.53 0 0 1 5 35.473V9.528C5 7.028 7.028 5 9.528 5zM13.55 19.096c-2.726 0-4.42 1.741-4.42 4.49 0 2.787 1.646 4.517 4.36 4.517 2.198 0 3.819-1.382 4.143-3.399h-2.018c-.264 1.32-1.213 1.705-2.113 1.705-1.249 0-2.197-.985-2.197-2.822 0-1.777.96-2.798 2.174-2.798.972 0 1.848.517 2.077 1.705h2.017c-.288-1.981-1.85-3.398-4.023-3.398m8.406 0c-1.705 0-3.615.829-3.615 2.606 0 1.56 1.285 2.245 2.702 2.533l1.057.217c.96.204 1.62.48 1.62 1.044 0 .72-.78.95-1.489.95-1.068 0-1.788-.421-2.016-1.334h-2.042c.324 1.885 1.765 2.99 4.01 2.99 1.814 0 3.651-1.033 3.651-2.858s-1.777-2.258-3.182-2.546l-1.188-.24c-.612-.132-1.009-.444-1.009-.876 0-.54.576-.84 1.38-.84.877 0 1.514.36 1.718 1.02h2.029c-.288-1.921-1.933-2.666-3.626-2.666m3.99.144 2.929 8.706h2.401l2.954-8.706h-2.088l-2.006 6.4-2.005-6.4z" clip-rule="evenodd"/></svg>
