<svg xmlns="http://www.w3.org/2000/svg" width="32" height="32" fill="none" viewBox="0 0 32 32"><path fill="var(--main-text-secondary-color, #666)" d="M20.18 10.463h.92l2.622-2.639.129-1.12a11.76 11.76 0 0 0-5.274-2.694 11.7 11.7 0 0 0-5.91.224 11.8 11.8 0 0 0-5.056 3.087 11.9 11.9 0 0 0-2.931 5.17c.292-.12.615-.14.92-.055l5.243-.87s.267-.445.405-.417a6.51 6.51 0 0 1 8.95-.685z"/><path fill="var(--main-text-tertiary-color, #B2B2B2)" d="M27.448 12.492a11.9 11.9 0 0 0-3.56-5.78l-3.68 3.705a6.6 6.6 0 0 1 1.798 2.334c.415.905.622 1.893.603 2.89v.657a3.26 3.26 0 0 1 2.316.966 3.3 3.3 0 0 1 .959 2.331 3.32 3.32 0 0 1-.96 2.331 3.28 3.28 0 0 1-2.315.966h-6.55l-.653.667v3.954l.653.658h6.55a8.48 8.48 0 0 0 5.091-1.65 8.57 8.57 0 0 0 3.11-4.381 8.63 8.63 0 0 0-.097-5.384 8.57 8.57 0 0 0-3.265-4.264"/><path fill="var(--main-text-secondary-color, #666)" d="M9.502 28.134h6.55v-5.28h-6.55c-.467 0-.928-.1-1.353-.295l-.92.287-2.64 2.64-.23.925a8.44 8.44 0 0 0 5.143 1.723"/><path fill="var(--main-text-tertiary-color, #B2B2B2)" d="M9.503 11.01a8.48 8.48 0 0 0-4.94 1.626 8.57 8.57 0 0 0-3.082 4.213 8.63 8.63 0 0 0-.077 5.231 8.58 8.58 0 0 0 2.956 4.303l3.8-3.825a3.3 3.3 0 0 1-1.232-.974 3.3 3.3 0 0 1-.546-3.012c.157-.51.436-.972.81-1.35a3.254 3.254 0 0 1 4.333-.266c.417.329.75.754.967 1.24l3.8-3.824a8.5 8.5 0 0 0-3.003-2.483 8.46 8.46 0 0 0-3.786-.88"/></svg>
