<svg xmlns="http://www.w3.org/2000/svg" width="45" height="45" fill="none" viewBox="0 0 45 45"><path fill="var(--main-text-secondary-color, #666)" d="M4.051 1.52c.857.075 1.74.357 2.516.681.672.28 1.291.605 1.785.888l.45.266.005.003.193.133c.192.144.38.313.527.436.28.237.638.34 1.004.36l.405.022 1.081.057h.001a.6.6 0 0 1 .114.016c1.244.283 2.542.54 3.667 1.105l.222.117.008.005.933.545c4.564 2.736 7.677 5.643 10.545 10.243l.245.417c.23.419.416.842.587 1.254.176.421.332.82.505 1.217l.182.4.006.014.557 1.235c.38.828.78 1.66 1.188 2.462l.618 1.18.007.013.281.585q.133.287.265.554c.133.269.266.51.415.721l.155.202.015.017.001.002.002.002.027.018q.063.035.202.087c.1.036.188.063.313.106q.084.027.178.064l.19.082.007.004.35.166c.358.164.742.32 1.148.492.527.224 1.084.473 1.582.784 1.502.91 2.956 1.968 4.3 3.06l.57.47.008.007.235.222c.223.228.416.471.586.69.239.305.434.563.658.78.121.115.19.275.19.44v.257a.62.62 0 0 1-.448.591c-.46.137-.944.285-1.429.404h-.001l-.002-.001c-.557.138-1.079.193-1.548.241-.481.05-.908.095-1.35.208l-.167.048c-.363.102-.46.56-.14.76.322.201.662.391.993.577.161.09.323.18.477.27l.429.265.01.007.438.318c.847.636 1.642 1.37 2.335 2.188.239.282.483.562.755.813l.447.419a1 1 0 0 1 .074.085c.15.212.242.447.3.589.07.17.105.242.142.287a.47.47 0 0 1 .097.382l-.016.086a.68.68 0 0 1-.53.536l-.046.01a.6.6 0 0 1-.397-.038 2.1 2.1 0 0 1-.541-.4c-.186-.181-.25-.259-.352-.333-.33-.219-.659-.46-.97-.682-.319-.23-.623-.445-.923-.63-.511-.314-1.07-.566-1.675-.837-.592-.266-1.232-.55-1.837-.914l-.007-.004c-.664-.41-1.293-.875-1.899-1.324-.643-.461-1.298-1.29-1.67-1.89-.147-.224-.231-.472-.28-.599-.267-.684-.54-1.294.574-1.71.157-.059.322-.1.442-.13l.288-.083c1.165-.478 2.472-.73 3.99-.813.091-.005.124-.128.046-.175-.193-.116-.4-.24-.543-.346-.928-.648-1.895-1.314-2.858-1.891-.2-.12-.5-.234-.868-.363-.333-.116-.733-.248-1.05-.384l-.295-.103a17 17 0 0 0-.383-.116c-.273-.08-.592-.17-.898-.269a7 7 0 0 1-.902-.352c-.258-.128-.552-.309-.75-.57-.93-1.176-1.546-2.613-2.143-3.913l-.002-.004-.003-.004c-.299-.665-.635-1.348-.978-2.047-.339-.69-.684-1.398-.994-2.1l-.228-.53q-.101-.256-.187-.484c-.118-.31-.23-.59-.385-.876l-.001-.004-.002-.003a24.76 24.76 0 0 0-8.85-9.435c-1.22-.743-2.563-1.422-4.034-1.882l-.275-.064a7 7 0 0 0-.978-.088c-.365-.016-.784-.03-1.202-.089a4 4 0 0 0-.543-.044h-.288a.7.7 0 0 1-.167-.022c-.4-.11-.728-.356-.965-.553-.283-.236-.42-.378-.597-.502-.84-.55-1.69-.928-2.75-1.344l-.029-.012a4.6 4.6 0 0 0-.792-.267 1.6 1.6 0 0 0-.369-.047.13.13 0 0 0-.078.033l-.012.01a.13.13 0 0 1-.055.028l-.055.013a.04.04 0 0 0-.03.03l-.006.013-.025.035a.15.15 0 0 0-.031.09q0 .032.011.09c.025.129.083.274.15.419l.149.281c.156.27.335.51.532.754.25.31.575.678.863 1.075L5.58 8.16c.273.389.535.8.725 1.201.397.833.685 1.704.954 2.536.204.633.398 1.241.623 1.825l.235.576.002.003.204.424c.222.428.502.879.77 1.262l.096.114c.103.11.235.22.428.404.211.202.48.486.625.88.162.321.143.694.108.953a6 6 0 0 1-.244.982c-.106.323-.229.644-.335.914-.111.282-.194.486-.238.617-.71 2.183-.566 5.246.242 7.11l.261.596c.084.181.17.346.27.498.029.042.094.023.1-.027.05-.438.101-.878.162-1.282.113-.743.277-1.486.588-2.17.195-.458.476-.834.74-1.152.285-.345.511-.583.712-.868a.635.635 0 0 1 .836-.181c.378.219.505.617.56.8q.027.087.046.162l.04.137.062.171.009.019.008.019c.382.884.779 1.819 1.231 2.67l.36.669a36 36 0 0 0 2.398 3.804l.442.588q.007.007.011.016c.374.516.916 1.1 1.422 1.595.09.074.152.11.31.226.295.215.625.473.625.834 0 .454-.464.78-.886.598a4.2 4.2 0 0 1-1.31-.88c-.286-.274-.497-.501-.712-.691l-.22-.18c-1.342-.983-2.975-2.477-3.935-3.948v-.001a1 1 0 0 1-.04-.072 33 33 0 0 0-.359-.725c-.009-.018-.036-.013-.038.006-.045.343-.088.726-.164 1.08-.155.72-.485 1.506-1.43 1.874h-.003c-1.022.406-1.905.048-2.529-.435-.608-.471-1.048-1.114-1.284-1.472l-.006-.009c-1.596-2.525-2.003-6.678-.909-10.02l.071-.242c.064-.245.11-.503.186-.822.062-.263.143-.56.278-.846.021-.046.02-.102-.016-.137-.06-.059-.105-.093-.202-.18a2 2 0 0 1-.28-.297c-.44-.577-.807-1.238-1.127-1.833l-.002-.004C5.416 14.647 4.957 13.197 4.51 12l-.08-.221c-.075-.219-.13-.43-.177-.613a5 5 0 0 0-.204-.65c-.313-.65-.876-1.296-1.406-1.993l-.01-.015c-.155-.215-.374-.468-.66-.823-.27-.337-.574-.736-.832-1.174C.63 5.65.227 4.517.733 3.331c.277-.66.702-1.137 1.24-1.44.531-.296 1.127-.399 1.713-.39z"/><path fill="var(--main-text-secondary-color, #666)" d="M10.562 8.506c.391.014.729.177.972.338l.138.093a1.8 1.8 0 0 1 .478.461c.08.108.134.21.173.29l.107.236c.091.222.176.503.163.81l-.02.187c-.095.546-.35.994-.783 1.313l.046-.042a.6.6 0 0 1-.111.09l-.005.003-.01.006c-.279.175-.706.166-.936-.17l-.05-.084q-.16-.317-.305-.62l-.295-.599-.022-.036c-.122-.156-.25-.284-.43-.483a5 5 0 0 1-.163-.19c-.178-.217-.406-.424-.464-.7l-.002-.021a1.3 1.3 0 0 1-.002-.22.66.66 0 0 1 .498-.522l.403-.082q.209-.035.45-.054z"/><path fill="var(--main-text-secondary-color, #666)" d="M11.71 12.29q-.012.01-.025.018l-.02.01q.005-.001.018-.01zM11.737 12.276l-.012.006.018-.01zM11.79 12.234l-.004.004-.043.034q.023-.019.047-.038"/></svg>
